<svg xmlns="http://www.w3.org/2000/svg" xmlns:xlink="http://www.w3.org/1999/xlink" version="1.1" x="0px" y="0px" viewBox="0 0 100 125" enable-background="new 0 0 100 100" xml:space="preserve"><path d="M74.749,12.751C68.139,6.14,59.35,2.5,50.001,2.5c-9.349,0-18.139,3.64-24.749,10.251  c-6.612,6.61-10.253,15.399-10.253,24.748c0,6.322,1.462,11.619,4.598,16.67c2.77,4.463,6.481,8.147,10.415,12.049  c7.251,7.199,15.472,15.354,18.974,30.476c0.109,0.475,0.531,0.81,1.016,0.81s0.902-0.335,1.014-0.81  C54.52,81.574,62.74,73.419,69.993,66.218c3.93-3.899,7.646-7.586,10.411-12.049c3.137-5.051,4.6-10.348,4.6-16.67  C85.001,28.151,81.359,19.361,74.749,12.751z M50.001,64.77c-15.037,0-27.271-12.231-27.271-27.271  c0-15.035,12.233-27.269,27.271-27.269c15.035,0,27.271,12.234,27.271,27.269C77.271,52.535,65.036,64.77,50.001,64.77z"/><path d="M52.98,38.105c0,0.456-0.371,0.826-0.824,0.826H47.84c-0.456,0-0.823-0.37-0.823-0.826V36.05h-11.36v11.157  c0,1.478,0.107,1.587,1.584,1.587h25.515c1.479,0,1.588-0.109,1.588-1.587V36.05H52.98V38.105z"/><path d="M47.221,26.013h5.56v2.576h1.854v-2.677c-0.002-0.967-0.785-1.749-1.75-1.751h-5.769c-0.967,0.002-1.751,0.784-1.751,1.751  v2.677h1.856V26.013z"/><path d="M62.757,29.369h-5.929h-2.194H52.78h-5.56h-1.856h-8.123c-1.477,0-1.584,0.106-1.584,1.585v4.077h28.686v-4.077  C64.343,29.475,64.234,29.369,62.757,29.369z"/><path d="M51.254,37.904c0.313,0,0.564-0.251,0.564-0.565V36.05h-3.637v1.289c0,0.313,0.253,0.565,0.564,0.565H51.254z"/><text x="0" y="115" fill="#000000" font-size="5px" font-weight="bold" font-family="'Helvetica Neue', Helvetica, Arial-Unicode, Arial, Sans-serif">Created by Stock Image Folio</text><text x="0" y="120" fill="#000000" font-size="5px" font-weight="bold" font-family="'Helvetica Neue', Helvetica, Arial-Unicode, Arial, Sans-serif">from the Noun Project</text></svg>