<svg xmlns="http://www.w3.org/2000/svg" xmlns:xlink="http://www.w3.org/1999/xlink" version="1.1" x="0px" y="0px" viewBox="0 0 100 125" enable-background="new 0 0 100 100" xml:space="preserve"><path fill="#000000" d="M70.008,34.647c-3.057-10.92-14.363-17.304-25.295-14.243c-10.908,3.057-17.268,14.365-14.23,25.287  c1.947,6.876,7.336,12.302,14.23,14.217L48.8,72.845c-1.441,0.043-2.898,0.153-4.323,0.337c-1.507,0.164-2.894,0.447-4.225,0.858  c-1.247,0.351-2.463,0.931-3.618,1.725c-0.557,0.386-0.889,1.013-0.889,1.68c0,0.7,0.335,1.345,0.891,1.72  c1.155,0.795,2.372,1.374,3.612,1.721c1.508,0.435,2.891,0.717,4.221,0.865c1.882,0.229,3.828,0.344,5.784,0.344  c1.944,0,3.883-0.115,5.76-0.343c1.336-0.149,2.719-0.432,4.221-0.865c1.248-0.348,2.465-0.928,3.611-1.718  c0.562-0.376,0.898-1.021,0.898-1.724c0-0.668-0.334-1.296-0.891-1.681c-1.15-0.792-2.369-1.372-3.604-1.719  c-1.344-0.416-2.73-0.699-4.227-0.861c-1.434-0.186-2.885-0.296-4.322-0.338l4.074-12.938  C66.686,56.852,73.047,45.546,70.008,34.647z M34.534,40.152c0-8.674,7.028-15.705,15.72-15.705c8.676,0,15.708,7.031,15.708,15.705  c0,8.67-7.031,15.746-15.708,15.746C41.562,55.898,34.534,48.822,34.534,40.152z M51.502,74.036c1.449,0.036,2.92,0.15,4.381,0.339  c1.43,0.156,2.742,0.423,4.027,0.82c1.123,0.315,2.221,0.839,3.262,1.558c0.23,0.157,0.373,0.423,0.373,0.691  c0,0.306-0.135,0.571-0.373,0.731c-1.043,0.719-2.141,1.242-3.266,1.556c-1.439,0.416-2.756,0.686-4.031,0.827  c-3.68,0.447-7.6,0.445-11.267-0.001c-1.269-0.141-2.586-0.41-4.031-0.827c-1.117-0.312-2.215-0.836-3.265-1.558  c-0.229-0.154-0.366-0.428-0.366-0.729c0-0.269,0.143-0.534,0.37-0.691c1.045-0.719,2.143-1.242,3.276-1.562  c1.271-0.393,2.585-0.659,4.026-0.816c1.449-0.188,2.921-0.302,4.374-0.338c0.061-0.001,0.116-0.021,0.172-0.04l1.089,3.448  l1.084-3.445C51.391,74.016,51.443,74.035,51.502,74.036z"/><text x="0" y="115" fill="#000000" font-size="5px" font-weight="bold" font-family="'Helvetica Neue', Helvetica, Arial-Unicode, Arial, Sans-serif">Created by Lluisa Iborra</text><text x="0" y="120" fill="#000000" font-size="5px" font-weight="bold" font-family="'Helvetica Neue', Helvetica, Arial-Unicode, Arial, Sans-serif">from the Noun Project</text></svg>