<svg xmlns="http://www.w3.org/2000/svg" xmlns:xlink="http://www.w3.org/1999/xlink" version="1.1" x="0px" y="0px" viewBox="0 0 100 125" enable-background="new 0 0 100 100" xml:space="preserve"><path fill="#000000" d="M55.043,11.257c-9.787-3.071-20.248,2.382-23.323,12.159c-1.149,3.648-1.149,7.505,0,11.153l14.667,46.583  c-0.629,0.048-1.241,0.111-1.84,0.188c-1.122,0.125-2.292,0.363-3.681,0.752c-1.157,0.324-2.272,0.857-3.28,1.561  c-0.754,0.493-1.205,1.342-1.205,2.269c0,0.896,0.46,1.756,1.175,2.227c1.04,0.718,2.152,1.248,3.275,1.566  c1.184,0.364,2.401,0.611,3.697,0.752c1.585,0.197,3.243,0.297,4.926,0.297c1.692,0,3.356-0.1,4.926-0.294  c1.301-0.143,2.552-0.396,3.686-0.745c1.146-0.326,2.258-0.855,3.289-1.563c0.735-0.492,1.192-1.35,1.192-2.239  c0-0.921-0.448-1.767-1.171-2.246c-1.051-0.729-2.166-1.261-3.316-1.583c-1.385-0.388-2.553-0.627-3.65-0.748  c-0.611-0.079-1.241-0.144-1.887-0.193L67.204,34.57v0c0,0,0.001,0,0.001-0.001C70.275,24.791,64.82,14.333,55.043,11.257z   M54.051,84.323c0.958,0.106,1.975,0.315,3.199,0.658c0.698,0.195,1.386,0.504,2.064,0.929c-0.67,0.416-1.368,0.729-2.102,0.938  c-0.998,0.307-2.031,0.517-3.182,0.643c-2.93,0.361-6.177,0.366-9.157-0.003c-1.127-0.123-2.162-0.332-3.193-0.648  c-0.694-0.197-1.397-0.513-2.069-0.93c0.661-0.414,1.367-0.732,2.063-0.928c1.229-0.343,2.246-0.553,3.229-0.662  c0.781-0.101,1.587-0.165,2.413-0.214l0.697,2.216c0,0.001,0.001,0.002,0.001,0.002l0.007,0.023c0.002,0.008,0.008,0.013,0.01,0.021  c0.045,0.134,0.109,0.259,0.189,0.375c0.012,0.018,0.022,0.037,0.036,0.055c0.082,0.109,0.18,0.205,0.291,0.289  c0.022,0.017,0.045,0.031,0.068,0.047c0.109,0.074,0.227,0.139,0.358,0.183c0.006,0.002,0.012,0.006,0.019,0.008  c0.003,0.001,0.006,0.003,0.009,0.004c0.142,0.044,0.284,0.062,0.425,0.065c0.009,0,0.017,0.004,0.025,0.004c0,0,0,0,0,0s0,0,0,0  c0.009,0,0.018-0.004,0.026-0.004c0.141-0.003,0.283-0.021,0.424-0.065c0.003-0.001,0.006-0.003,0.009-0.004  c0.008-0.002,0.014-0.007,0.021-0.009c0.13-0.045,0.246-0.107,0.354-0.181c0.024-0.016,0.047-0.031,0.07-0.049  c0.11-0.083,0.208-0.179,0.289-0.287c0.014-0.019,0.024-0.038,0.038-0.058c0.079-0.114,0.142-0.237,0.187-0.369  c0.003-0.009,0.009-0.015,0.012-0.023l0.707-2.242C52.431,84.155,53.257,84.221,54.051,84.323z M64.342,33.669L64.342,33.669  L49.453,80.904L34.581,33.668c-0.963-3.059-0.963-6.292,0-9.351c2.58-8.201,11.356-12.776,19.563-10.198  C62.344,16.699,66.918,25.469,64.342,33.669z"/><text x="0" y="115" fill="#000000" font-size="5px" font-weight="bold" font-family="'Helvetica Neue', Helvetica, Arial-Unicode, Arial, Sans-serif">Created by Lluisa Iborra</text><text x="0" y="120" fill="#000000" font-size="5px" font-weight="bold" font-family="'Helvetica Neue', Helvetica, Arial-Unicode, Arial, Sans-serif">from the Noun Project</text></svg>